HIERARCHY
ROOT Hips
{
	OFFSET 0.000000 0.000000 0.000000
	CHANNELS 6 Xposition Yposition Zposition Zrotation Yrotation Xrotation 
	JOINT LHipJoint
	{
		OFFSET 0.000000 0.000000 0.000000
		CHANNELS 3 Zrotation Yrotation Xrotation
		JOINT LeftUpLeg
		{
			OFFSET 1.363060 -1.794630 0.839290
			CHANNELS 3 Zrotation Yrotation Xrotation
			JOINT LeftLeg
			{
				OFFSET 2.448110 -6.726130 0.000000
				CHANNELS 3 Zrotation Yrotation Xrotation
				JOINT LeftFoot
				{
					OFFSET 2.562200 -7.039590 0.000000
					CHANNELS 3 Zrotation Yrotation Xrotation
					JOINT LeftToeBase
					{
						OFFSET 0.157640 -0.433110 2.322550
						CHANNELS 3 Zrotation Yrotation Xrotation
						End Site
						{
							OFFSET 0.000000 0.000000 0.000000
						}
					}
				}
			}
		}
	}
	JOINT RHipJoint
	{
		OFFSET 0.000000 0.000000 0.000000
		CHANNELS 3 Zrotation Yrotation Xrotation
		JOINT RightUpLeg
		{
			OFFSET -1.305520 -1.794630 0.839290
			CHANNELS 3 Zrotation Yrotation Xrotation
			JOINT RightLeg
			{
				OFFSET -2.542530 -6.985550 0.000000
				CHANNELS 3 Zrotation Yrotation Xrotation
				JOINT RightFoot
				{
					OFFSET -2.568260 -7.056230 0.000000
					CHANNELS 3 Zrotation Yrotation Xrotation
					JOINT RightToeBase
					{
						OFFSET -0.164730 -0.452590 2.363150
						CHANNELS 3 Zrotation Yrotation Xrotation
						End Site
						{
							OFFSET 0.000000 0.000000 0.000000
						}
					}
				}
			}
		}
	}
	JOINT LowerBack
	{
		OFFSET 0.000000 0.000000 0.000000
		CHANNELS 3 Zrotation Yrotation Xrotation
		JOINT Spine
		{
			OFFSET 0.028270 2.035590 -0.193380
			CHANNELS 3 Zrotation Yrotation Xrotation
			JOINT Spine1
			{
				OFFSET 0.056720 2.048850 -0.042750
				CHANNELS 3 Zrotation Yrotation Xrotation
				JOINT Neck
				{
					OFFSET 0.000000 0.000000 0.000000
					CHANNELS 3 Zrotation Yrotation Xrotation
					JOINT Neck1
					{
						OFFSET -0.054170 1.746240 0.172020
						CHANNELS 3 Zrotation Yrotation Xrotation
						JOINT Head
						{
							OFFSET 0.104070 1.761360 -0.123970
							CHANNELS 3 Zrotation Yrotation Xrotation
							End Site
							{
								OFFSET 0.000000 0.000000 0.000000
							}
						}
					}
				}
				JOINT LeftShoulder
				{
					OFFSET 0.000000 0.000000 0.000000
					CHANNELS 3 Zrotation Yrotation Xrotation
					JOINT LeftArm
					{
						OFFSET 3.362410 1.200890 -0.311210
						CHANNELS 3 Zrotation Yrotation Xrotation
						JOINT LeftForeArm
						{
							OFFSET 4.983000 -0.000000 -0.000000
							CHANNELS 3 Zrotation Yrotation Xrotation
							JOINT LeftHand
							{
								OFFSET 3.483560 -0.000000 -0.000000
								CHANNELS 3 Zrotation Yrotation Xrotation
								JOINT LeftFingerBase
								{
									OFFSET 0.000000 0.000000 0.000000
									CHANNELS 3 Zrotation Yrotation Xrotation
									JOINT LeftHandIndex1
									{
										OFFSET 0.715260 -0.000000 -0.000000
										CHANNELS 3 Zrotation Yrotation Xrotation
										End Site
										{
											OFFSET 0.000000 0.000000 0.000000
										}
									}
								}
								JOINT LThumb
								{
									OFFSET 0.000000 0.000000 0.000000
									CHANNELS 3 Zrotation Yrotation Xrotation
									End Site
									{
										OFFSET 0.000000 0.000000 0.000000
									}
								}
							}
						}
					}
				}
				JOINT RightShoulder
				{
					OFFSET 0.000000 0.000000 0.000000
					CHANNELS 3 Zrotation Yrotation Xrotation
					JOINT RightArm
					{
						OFFSET -3.136600 1.374050 -0.404650
						CHANNELS 3 Zrotation Yrotation Xrotation
						JOINT RightForeArm
						{
							OFFSET -5.241900 -0.000000 -0.000000
							CHANNELS 3 Zrotation Yrotation Xrotation
							JOINT RightHand
							{
								OFFSET -3.444170 -0.000000 -0.000000
								CHANNELS 3 Zrotation Yrotation Xrotation
								JOINT RightFingerBase
								{
									OFFSET 0.000000 0.000000 0.000000
									CHANNELS 3 Zrotation Yrotation Xrotation
									JOINT RightHandIndex1
									{
										OFFSET -0.622530 -0.000000 -0.000000
										CHANNELS 3 Zrotation Yrotation Xrotation
										End Site
										{
											OFFSET 0.000000 0.000000 0.000000
										}
									}
								}
								JOINT RThumb
								{
									OFFSET 0.000000 0.000000 0.000000
									CHANNELS 3 Zrotation Yrotation Xrotation
									End Site
									{
										OFFSET 0.000000 0.000000 0.000000
									}
								}
							}
						}
					}
				}
			}
		}
	}
}
MOTION
Frames: 9
Frame Time: 0.008333
-11.855992 15.772235 -0.393822 114.704995 89.528077 141.411086 -11.751955 1.603785 -5.259259 -6.023303 12.640487 -22.717323 -1.247161 3.334672 52.966961 0.463061 1.113553 -8.415341 -0.052800 -0.000000 -76.186800 8.268954 1.468382 -0.999545 13.927665 2.760724 -65.412435 1.728943 -4.814871 53.113500 -0.314968 2.143739 -12.422531 0.015700 0.000000 -20.714000 3.776942 -3.855058 9.099949 0.294987 -3.784515 -0.808357 -5.155429 -3.719827 0.542884 8.208126 -15.998306 -10.373915 -2.127514 -0.096862 -1.136500 0.000000 0.000000 0.000000 8.128110 7.964864 1.091237 -51.228711 -11.389045 -0.572165 -179.418814 -81.743269 179.977358 2.063151 6.777555 0.122779 -0.104526 0.337136 -0.000000 0.000000 0.000000 0.000000 0.000000 0.000000 0.000000 8.645741 -12.426544 2.331035 65.615679 -19.088948 7.746230 1.082743 67.110763 0.003801 -0.017509 2.382131 -0.001018 0.059786 -0.154472 -0.000000 0.000000 0.000000 0.000000 0.000000 0.000000 0.000000 
-11.673462 15.750060 -0.372925 102.807989 89.401504 129.295231 -11.850999 1.616427 -5.211896 -5.754561 12.300803 -22.061832 -1.074584 3.349627 53.486489 0.457892 1.093286 -7.092327 -0.021500 0.000000 -75.718200 8.256650 1.443292 -1.086607 13.706977 2.927156 -64.931403 1.586732 -4.864740 54.574466 -0.457256 1.709666 -13.731017 0.050200 0.000000 -16.294600 3.975193 -3.920141 9.144861 0.343977 -3.853130 -0.809532 -5.123577 -3.788615 0.519469 8.204937 -15.972960 -10.406414 -2.152058 -0.098530 -1.144144 0.000000 0.000000 0.000000 8.147380 7.979409 1.118200 -51.585676 -10.428514 -0.685297 -179.395070 -81.419770 179.979429 1.822196 6.765340 0.108771 -0.099661 0.334454 0.000000 0.000000 0.000000 0.000000 0.000000 0.000000 0.000000 8.692084 -12.378636 2.295492 65.424194 -18.785754 7.559496 1.059003 67.610611 0.003288 -0.238174 2.339276 -0.005805 0.062508 -0.156933 -0.000000 0.000000 0.000000 0.000000 0.000000 0.000000 0.000000 
-11.492193 15.730499 -0.352647 89.805166 89.260753 116.115437 -11.971350 1.629130 -5.150771 -5.541161 11.893986 -21.537412 -0.900280 3.378518 54.113539 0.473070 1.192044 -5.800073 0.002800 -0.000000 -74.554600 8.216636 1.416938 -1.165624 13.538510 3.132545 -64.426266 1.469046 -4.891482 55.872070 -0.608071 1.258649 -15.103948 0.108200 -0.000001 -12.926300 4.125072 -3.965219 9.171211 0.378496 -3.903736 -0.815198 -5.098563 -3.839311 0.494532 8.231664 -15.921134 -10.423997 -2.184801 -0.101072 -1.147532 0.000000 0.000000 0.000000 8.187831 7.982509 1.139711 -52.031063 -9.420512 -0.773223 -179.375497 -81.146136 179.981480 1.591431 6.726069 0.094963 -0.094604 0.331915 -0.000000 0.000000 0.000000 0.000000 0.000000 0.000000 0.000000 8.799226 -12.304266 2.258236 65.220551 -18.389356 7.398125 1.039451 68.049638 0.002773 -0.452969 2.293672 -0.010391 0.065402 -0.159442 -0.000000 0.000000 0.000000 0.000000 0.000000 0.000000 0.000000 
-11.312502 15.713626 -0.332826 76.347524 89.098623 102.527118 -12.095989 1.651623 -5.078239 -5.387363 11.436228 -21.160049 -0.730793 3.424371 54.848939 0.508317 1.417573 -4.589131 0.027400 0.000000 -72.675100 8.165094 1.404529 -1.233931 13.415095 3.379761 -63.903796 1.371025 -4.895455 57.008498 -0.762989 0.804776 -16.484534 0.189900 0.000000 -10.634400 4.237174 -3.984436 9.177117 0.401113 -3.930146 -0.825256 -5.081409 -3.865887 0.468992 8.287320 -15.846244 -10.426796 -2.224185 -0.104355 -1.146620 0.000000 0.000000 0.000000 8.249521 7.975238 1.154950 -52.559853 -8.375716 -0.833201 -179.361407 -80.933427 179.983463 1.377095 6.659756 0.081855 -0.089419 0.329531 0.000000 0.000000 0.000000 0.000000 0.000000 0.000000 0.000000 8.960915 -12.203876 2.220294 65.018042 -17.902630 7.253403 1.024187 68.426376 0.002275 -0.655152 2.247676 -0.014477 0.068407 -0.162044 -0.000000 0.000000 0.000000 0.000000 0.000000 0.000000 0.000000 
-11.134713 15.699485 -0.313282 63.743572 88.914562 89.841510 -12.204308 1.686612 -4.998039 -5.290133 10.943016 -20.941767 -0.569547 3.485942 55.693823 0.561724 1.768894 -3.512124 0.059100 -0.000000 -70.056700 8.120904 1.412709 -1.287382 13.329310 3.665953 -63.372371 1.288166 -4.880748 57.988206 -0.917157 0.356834 -17.808200 0.292000 0.000000 -9.455800 4.333028 -3.977973 9.160658 0.417409 -3.931554 -0.839544 -5.072971 -3.867694 0.444005 8.369755 -15.751144 -10.415654 -2.268611 -0.108234 -1.141616 0.000000 0.000000 0.000000 8.331363 7.959518 1.164076 -53.165395 -7.310174 -0.860575 -179.353786 -80.793502 179.985349 1.182231 6.568500 0.069847 -0.084166 0.327300 -0.000000 0.000000 0.000000 0.000000 0.000000 0.000000 0.000000 9.169409 -12.079455 2.182255 64.830453 -17.331578 7.113680 1.012942 68.741704 0.001805 -0.840008 2.201763 -0.018063 0.071440 -0.164761 -0.000000 0.000000 0.000000 0.000000 0.000000 0.000000 0.000000 
-10.959144 15.688061 -0.293906 53.124913 88.717077 79.188869 -12.283452 1.727201 -4.914534 -5.243162 10.428814 -20.886017 -0.416511 3.557296 56.643219 0.630242 2.237391 -2.611413 0.102600 0.000000 -66.794100 8.095727 1.435772 -1.323117 13.271997 3.978068 -62.840878 1.217787 -4.854384 58.822028 -1.066083 -0.076419 -19.032870 0.408700 0.000000 -9.228900 4.430427 -3.952563 9.122133 0.432372 -3.913576 -0.857658 -5.073233 -3.850408 0.420201 8.475509 -15.639007 -10.391451 -2.316316 -0.112550 -1.132808 0.000000 0.000000 0.000000 8.430836 7.932235 1.168145 -53.838899 -6.239186 -0.852218 -179.353256 -80.737572 179.987119 1.007488 6.455679 0.058941 -0.078899 0.325200 -0.000000 0.000000 0.000000 0.000000 0.000000 0.000000 0.000000 9.414707 -11.936285 2.144592 64.672536 -16.683309 6.968196 1.005136 68.996776 0.001359 -1.008111 2.158095 -0.021248 0.074428 -0.167636 -0.000000 0.000000 0.000000 0.000000 0.000000 0.000000 0.000000 
-10.786135 15.679364 -0.274583 44.925841 88.518364 70.999789 -12.334050 1.762513 -4.831254 -5.241751 9.907856 -20.991041 -0.270595 3.631836 57.687608 0.710260 2.807909 -1.918594 0.159100 -0.000000 -63.029900 8.089964 1.462103 -1.340260 13.230718 4.299570 -62.317676 1.157099 -4.822423 59.523957 -1.205946 -0.488765 -20.127930 0.533400 0.000000 -9.738600 4.533679 -3.916539 9.063168 0.447695 -3.884017 -0.879082 -5.081355 -3.821796 0.397961 8.600470 -15.511494 -10.355175 -2.365709 -0.117154 -1.120560 0.000000 0.000000 0.000000 8.545148 7.890954 1.168889 -54.568993 -5.178556 -0.805202 -179.360104 -80.776987 179.988774 0.850820 6.326524 0.049234 -0.073664 0.323163 0.000000 0.000000 0.000000 0.000000 0.000000 0.000000 0.000000 9.687047 -11.779157 2.107339 64.558825 -15.967056 6.805991 0.999964 69.194637 0.000928 -1.162531 2.117630 -0.024033 0.077298 -0.170705 -0.000000 0.000000 0.000000 0.000000 0.000000 0.000000 0.000000 
-10.615972 15.673412 -0.255221 38.975399 88.327970 65.098529 -12.364827 1.784234 -4.750557 -5.281107 9.395524 -21.252799 -0.131695 3.705527 58.811667 0.798155 3.460090 -1.451780 0.226001 0.000000 -58.938400 8.097556 1.482445 -1.340416 13.195037 4.616174 -61.806984 1.103491 -4.788106 60.110307 -1.334064 -0.875173 -21.079669 0.659600 0.000000 -10.706601 4.636685 -3.875473 8.986807 0.462343 -3.848515 -0.903179 -5.096073 -3.787404 0.377224 8.739851 -15.369230 -10.308046 -2.415276 -0.121893 -1.105332 0.000000 0.000000 0.000000 8.670681 7.835437 1.168106 -55.343747 -4.143568 -0.716983 -179.374186 -80.918847 179.990318 0.708893 6.186752 0.040629 -0.068498 0.321106 -0.000000 0.000000 0.000000 0.000000 0.000000 0.000000 0.000000 9.975995 -11.610692 2.070507 64.502607 -15.192402 6.618036 0.996526 69.339690 0.000491 -1.309506 2.080525 -0.026519 0.080013 -0.174015 -0.000000 0.000000 0.000000 0.000000 0.000000 0.000000 0.000000 
-10.448929 15.670224 -0.235792 34.856164 88.151713 61.061542 -12.385164 1.788199 -4.674419 -5.354404 8.907050 -21.663931 -0.000318 3.776964 59.993780 0.891139 4.173305 -1.206483 0.297900 -0.000000 -54.832600 8.111912 1.492855 -1.327283 13.158103 4.916776 -61.309059 1.054952 -4.752567 60.596753 -1.449091 -1.232896 -21.887608 0.782100 -0.000001 -11.876300 4.731635 -3.831654 8.898336 0.474570 -3.809596 -0.928993 -5.116382 -3.749679 0.357347 8.888926 -15.212491 -10.251026 -2.463581 -0.126626 -1.087544 0.000000 0.000000 0.000000 8.802620 7.765464 1.167829 -56.150214 -3.144177 -0.587357 -179.395329 -81.170937 179.991770 0.576996 6.043305 0.032823 -0.063409 0.318871 -0.000000 0.000000 0.000000 0.000000 0.000000 0.000000 0.000000 10.271371 -11.431634 2.034156 64.514137 -14.368106 6.399194 0.993962 69.436668 0.000020 -1.457730 2.048112 -0.029106 0.082582 -0.177632 -0.000000 0.000000 0.000000 0.000000 0.000000 0.000000 0.000000 
